<?xml version="1.0" encoding="UTF-8" standalone="no"?>
<!-- Generator: Adobe Illustrator 17.1.0, SVG Export Plug-In . SVG Version: 6.00 Build 0)  -->

<svg
   version="1.1"
   id="Capa_1"
   x="0px"
   y="0px"
   viewBox="0 0 396.152 396.152"
   style="enable-background:new 0 0 396.152 396.152;"
   xml:space="preserve"
   sodipodi:docname="popsicle-1319971786027743373.svg"
   inkscape:export-filename="fav-logo.png"
   inkscape:export-xdpi="11.63"
   inkscape:export-ydpi="11.63"
   inkscape:version="1.2.2 (b0a8486541, 2022-12-01)"
   xmlns:inkscape="http://www.inkscape.org/namespaces/inkscape"
   xmlns:sodipodi="http://sodipodi.sourceforge.net/DTD/sodipodi-0.dtd"
   xmlns="http://www.w3.org/2000/svg"
   xmlns:svg="http://www.w3.org/2000/svg"><defs
   id="defs45" /><sodipodi:namedview
   id="namedview43"
   pagecolor="#ffffff"
   bordercolor="#111111"
   borderopacity="1"
   inkscape:showpageshadow="0"
   inkscape:pageopacity="0"
   inkscape:pagecheckerboard="1"
   inkscape:deskcolor="#d1d1d1"
   showgrid="false"
   inkscape:zoom="1.0665098"
   inkscape:cx="42.193705"
   inkscape:cy="270.97735"
   inkscape:window-width="1920"
   inkscape:window-height="1011"
   inkscape:window-x="0"
   inkscape:window-y="32"
   inkscape:window-maximized="1"
   inkscape:current-layer="g10" />
<g
   id="g10"
   transform="matrix(0.6954897,0,0,0.6954897,60.315894,60.316534)">
	<circle
   style="fill:#4b0075;fill-opacity:1;stroke-width:1.59563"
   id="path1297"
   cx="198.07642"
   cy="198.0755"
   r="284.80078" /><path
   style="fill:#d4b783"
   d="m 79.899,292.346 -54.965,54.965 c -6.591,6.591 -6.591,17.315 0,23.906 0.909,0.91 1.903,1.681 2.948,2.34 l 67.397,-65.83 z"
   id="path2" />
	<path
   style="fill:#ffd0fa"
   d="M 337.51,162.491 C 353.862,108.924 343.498,32.152 242.261,23.032 222.646,27.726 204.612,37.77 189.95,52.433 L 60.915,181.468 c -8.496,8.496 -13.174,19.791 -13.174,31.805 0,12.014 4.679,23.31 13.174,31.805 l 90.159,90.159 c 3.519,3.52 7.525,6.373 11.857,8.521 32.42,-29.082 164.812,-149.271 174.579,-181.267 z M 221.69,84.173 c -1.953,1.953 -4.512,2.929 -7.071,2.929 -2.559,0 -5.119,-0.977 -7.071,-2.929 -3.905,-3.905 -3.905,-10.237 0,-14.142 16.01,-16.01 37.241,-24.925 59.781,-25.103 22.595,-0.129 43.764,8.443 59.595,24.275 3.905,3.905 3.905,10.237 0,14.142 -3.904,3.905 -10.236,3.906 -14.142,0 C 300.77,71.333 284.685,64.804 267.487,64.927 250.229,65.064 233.965,71.899 221.69,84.173 Z"
   id="path4" />
	<path
   d="M 358.689,37.464 C 334.514,13.289 302.338,0 268.023,0 267.806,0 267.588,0 267.371,0.002 232.848,0.171 200.33,13.769 175.808,38.291 L 46.773,167.326 c -12.272,12.273 -19.032,28.591 -19.032,45.947 0,17.356 6.759,33.674 19.032,45.947 l 18.984,18.984 -54.965,54.965 c -14.389,14.389 -14.389,37.802 0,52.191 7.195,7.194 16.645,10.791 26.096,10.791 9.451,0 18.901,-3.597 26.096,-10.791 l 54.965,-54.965 18.984,18.984 c 12.273,12.272 28.591,19.032 45.947,19.032 17.357,0 33.674,-6.759 45.947,-19.032 L 357.862,220.344 c 24.522,-24.522 38.12,-57.04 38.289,-91.563 0.169,-34.56 -13.135,-66.99 -37.462,-91.317 z M 48.84,371.218 c -5.681,5.682 -14.429,6.454 -20.958,2.34 -1.045,-0.659 -2.039,-1.43 -2.948,-2.34 -6.591,-6.591 -6.591,-17.315 0,-23.906 l 54.965,-54.965 15.381,15.381 8.526,8.526 z M 343.719,206.202 214.684,335.237 c -8.496,8.496 -19.791,13.174 -31.805,13.174 -7.037,0 -13.822,-1.617 -19.948,-4.654 -4.333,-2.148 -8.338,-5.001 -11.857,-8.521 L 60.915,245.077 c -8.496,-8.495 -13.174,-19.791 -13.174,-31.805 0,-12.014 4.679,-23.31 13.174,-31.805 L 189.95,52.433 c 14.663,-14.663 32.696,-24.707 52.311,-29.401 8.171,-1.955 16.615,-2.989 25.207,-3.031 C 267.654,20 267.834,20 268.019,20 c 28.973,0 56.133,11.212 76.526,31.606 20.524,20.523 31.748,47.897 31.605,77.078 -0.143,29.217 -11.66,56.747 -32.431,77.518 z"
   id="path6" />
	<path
   d="m 326.923,83.346 c 3.905,-3.905 3.906,-10.237 0,-14.142 -15.832,-15.832 -37,-24.404 -59.595,-24.275 -22.54,0.177 -43.77,9.092 -59.781,25.103 -3.905,3.905 -3.905,10.237 0,14.142 1.953,1.953 4.512,2.929 7.071,2.929 2.559,0 5.119,-0.977 7.071,-2.929 12.274,-12.274 28.538,-19.109 45.796,-19.245 17.198,-0.123 33.284,6.406 45.295,18.418 3.908,3.905 10.239,3.904 14.143,-10e-4 z"
   id="path8" />
<path
   style="fill:#800080;fill-opacity:1;stroke-width:0.937638"
   d="m 244.78758,73.665008 c -4.38655,0.220067 -9.06466,0.33121 -13.13425,1.849637 1.73678,3.355414 8.04156,1.994731 11.65359,3.505169 21.95944,4.218127 43.54971,18.113724 51.1081,39.981196 6.43101,18.34703 5.26807,38.98503 -1.26217,57.12474 -7.1898,13.55934 -18.75691,24.21265 -28.83489,35.66097 -28.26504,30.27067 -59.14188,57.90697 -89.2031,86.32353 -2.33233,3.14906 4.02007,3.34829 5.84925,4.16626 8.40604,2.49816 17.82196,-0.42572 24.74435,-5.34238 34.47249,-33.31388 68.45227,-67.17552 101.54376,-101.86149 19.02244,-25.21584 20.16496,-62.62977 1.68848,-88.48958 C 294.82143,85.5185 270.0206,73.25368 244.78758,73.665008 Z"
   id="path2892"
   transform="matrix(1.4378358,0,0,1.4378358,-86.724353,-86.725273)" /><path
   style="fill:#000000;fill-opacity:0;stroke-width:0.937638"
   d="m 125.88521,274.57956 c -15.02476,15.07086 -31.186237,29.14377 -45.153123,45.20074 0.435143,3.74414 6.355973,2.13397 8.933198,1.68665 7.071441,-3.20436 11.670145,-10.28819 17.566895,-15.18471 8.47427,-8.71406 17.71244,-17.00541 25.54797,-26.13545 -1.9219,-1.75495 -4.21963,-5.74881 -6.89494,-5.56723 z"
   id="path3531"
   transform="matrix(1.4378358,0,0,1.4378358,-86.724353,-86.725273)" /><path
   style="fill:#d4b783;fill-opacity:1;stroke-width:0.165753"
   d="m 126.41803,274.35248 c -22.15349,10.66098 -30.858946,27.91399 -45.450903,42.87644 -0.449898,0.61424 -1.09747,2.12902 -1.259588,2.89266 1.063202,0.88896 3.029888,1.70966 4.352796,2.06612 3.965788,0.75038 7.998669,-1.04768 10.643139,-4.12261 12.711596,-12.43066 25.206156,-25.08119 37.793006,-37.63804 -0.17984,-0.85128 -1.33231,-1.41699 -1.87642,-2.15706 -1.37663,-1.30173 -3.73362,-3.88631 -5.1808,-5.07469 z"
   id="path3744"
   transform="matrix(1.4378358,0,0,1.4378358,-86.724353,-86.725273)"
   sodipodi:nodetypes="ccccccccc" /></g>
<g
   id="g12">
</g>
<g
   id="g14">
</g>
<g
   id="g16">
</g>
<g
   id="g18">
</g>
<g
   id="g20">
</g>
<g
   id="g22">
</g>
<g
   id="g24">
</g>
<g
   id="g26">
</g>
<g
   id="g28">
</g>
<g
   id="g30">
</g>
<g
   id="g32">
</g>
<g
   id="g34">
</g>
<g
   id="g36">
</g>
<g
   id="g38">
</g>
<g
   id="g40">
</g>
</svg>
